<?xml version="1.0" encoding="utf-8"?>
<!-- Generator: Adobe Illustrator 23.0.3, SVG Export Plug-In . SVG Version: 6.00 Build 0)  -->
<svg version="1.1" id="Ebene_2" xmlns="http://www.w3.org/2000/svg" xmlns:xlink="http://www.w3.org/1999/xlink" x="0px" y="0px"
	 viewBox="0 0 1920 1080" style="enable-background:new 0 0 1920 1080;" xml:space="preserve">
<style type="text/css">
	.st0{fill:#FFFFFF;}
</style>
<path class="st0" d="M582.1,241.7c2.2-14.9,9.3-47.8,36.2-75.8c53.3-55.6,133.8-39.4,139.5-38.2c-0.3,22.2-0.5,44.4-0.8,66.6
	c-18.7-1.4-34.1-1.2-45.3-0.6c-11.6,0.5-17,1.4-22.9,3.4c-4.4,1.5-16.3,5.6-26.6,16.8c-13.4,14.7-15.1,32-15.4,37.7
	c-0.4,216.7-0.8,433.5-1.1,650.2c-0.4,4.3-2.1,31.4,18.5,53.3c23,24.4,54.4,21.7,58,21.3c163.6,0.2,327.1,0.4,490.7,0.5
	c5.6-0.8,21.1-3.9,34.9-17c13.9-13.2,17.9-28.6,19-34.1c-1.1-226.8-2.2-453.6-3.3-680.3c-0.5-4.8-2.7-21-16.3-35
	c-13.7-14.1-30.1-16.7-34.8-17.3c-18.9,0.1-37.9,0.2-56.8,0.3c0.2-22.3,0.4-44.5,0.6-66.8c18.7,0.5,37.3,1.1,56,1.6
	c19.6,0.6,48.5,8.4,74.3,30.1c33.1,27.9,40.9,66.7,43.1,80.7c0.3,229,0.6,458.1,0.8,687.1c-1.4,11.7-7,46-35.4,76.2
	c-31.8,33.8-70.9,39.9-81.9,41.2c-171.6-0.1-343.1-0.1-514.7-0.2c-11.7-1.4-48.1-7.1-78.5-37.6c-40.9-41.1-38.3-94.5-37.8-103
	C581.9,682.5,582,462.1,582.1,241.7z"/>
<path class="st0" d="M775.8,271.2c122.6,0.1,245.2,0.2,367.8,0.3c0-46.1-0.1-92.2-0.1-138.3c-11.6,0-23.1,0-34.7,0
	c-0.5-21.1-1-42.2-1.5-63.3c-0.5-4.8-2.1-14-8.6-23.1c-10.9-15.3-27.3-18.8-31.3-19.5c-69.7,0.5-139.4,0.9-209,1.4
	c-3.7,0.1-20.6,0.8-34.1,14.4c-10.2,10.3-12.7,22.3-13.4,26.7c0.1,21.1,0.2,42.2,0.4,63.4c-11.8,0-23.7,0-35.5,0
	C775.9,179.1,775.8,225.1,775.8,271.2z"/>
<ellipse class="st0" cx="1061.7" cy="450.6" rx="192.5" ry="43.5"/>
<ellipse class="st0" cx="1061.7" cy="660.5" rx="192.5" ry="43.5"/>
<ellipse class="st0" cx="1061.7" cy="866.4" rx="192.5" ry="43.5"/>
<path class="st0" d="M718.2,792.7c-0.2,48-0.5,95.9-0.7,143.9c47.1,0,94.1,0,141.2,0c0-48,0-95.9,0-143.9
	C811.9,792.7,765,792.7,718.2,792.7z M821.2,900.1c-22.1,0-44.2,0-66.3,0c0.1-22.5,0.2-45,0.3-67.5c22,0,44,0,65.9,0
	C821.2,855.1,821.2,877.6,821.2,900.1z"/>
<path class="st0" d="M693.2,674.5c8.8-8.8,17.6-17.6,26.3-26.3c13.2,13.2,26.4,26.4,39.6,39.6c38.2-38.2,76.3-76.3,114.5-114.5
	c9.4,9.4,18.9,18.9,28.3,28.3c-47.2,47.2-94.4,94.4-141.5,141.5C738,720.3,715.6,697.4,693.2,674.5z"/>
<path class="st0" d="M693.2,463c8.8-8.8,17.6-17.6,26.3-26.3c13.2,13.2,26.4,26.4,39.6,39.6c38.2-38.2,76.3-76.3,114.5-114.5
	c9.4,9.4,18.9,18.9,28.3,28.3c-47.2,47.2-94.4,94.4-141.5,141.5C738,508.8,715.6,485.9,693.2,463z"/>
<path class="st0" d="M-471.7,762.1"/>
</svg>
