<?xml version="1.0" encoding="utf-8"?>
<!-- Generator: Adobe Illustrator 23.0.3, SVG Export Plug-In . SVG Version: 6.00 Build 0)  -->
<svg version="1.1" id="Ebene_1" xmlns="http://www.w3.org/2000/svg" xmlns:xlink="http://www.w3.org/1999/xlink" x="0px" y="0px"
	 viewBox="0 0 100 125" style="enable-background:new 0 0 100 125;" xml:space="preserve">
<style type="text/css">
	.st0{fill:#FFFFFF;}
</style>
<g>
	<path class="st0" d="M20.8,81.2h19.8V61.4H20.8V81.2z M23.3,63.9h14.8v14.8H23.3V63.9z"/>
	<rect x="25.8" y="26.8" class="st0" width="9.9" height="9.9"/>
	<path class="st0" d="M40.6,21.8H20.8v19.8h19.8V21.8z M38.1,39.1H23.3V24.3h14.8V39.1z"/>
	<rect x="60.4" y="73.7" class="st0" width="4.9" height="2.5"/>
	<polygon class="st0" points="62.9,81.2 62.9,78.7 60.4,78.7 60.4,76.2 50.5,76.2 50.5,73.7 45.6,73.7 45.6,78.7 50.5,78.7 
		50.5,81.2 55.4,81.2 55.4,78.7 57.9,78.7 57.9,81.2 	"/>
	<rect x="25.8" y="66.3" class="st0" width="9.9" height="9.9"/>
	<path class="st0" d="M75.2,71.3v-4.9h2.5v-2.5h2.5v-2.5h-4.9v2.5h-2.5v2.5h-4.9v2.5h-2.5v-2.5h-9.9v-2.5h2.5v-2.5h2.5v-2.5h2.5V54
		h-2.5v-2.5H53v4.9h-2.5V49h4.9v0v-4.9H35.7v2.5h-2.5v-2.5h-7.4V49h4.9v2.5h-2.5V54h-2.5V49h-4.9v9.9h7.4v-2.5h2.5V54h2.5v-2.5h2.5
		V49h2.5v-2.5h2.5v4.9h-2.5V54h4.9V49h2.5v7.4H33.2v2.5H48v-2.5h2.5v9.9H48v-4.9h-4.9v4.9h2.5v4.9H53v2.5h7.4v-4.9h2.5v2.5h2.5v2.5
		h2.5v2.5h2.5v2.5h2.5v2.5h7.4v0v-9.9L75.2,71.3l0,4.9h-2.5v-2.5h-2.5v-2.5H75.2z M53,58.9h2.5v2.5H53V58.9z"/>
	<rect x="65.3" y="61.4" class="st0" width="4.9" height="2.5"/>
	<path class="st0" d="M80.2,21.8H60.4v19.8h19.8V21.8z M77.7,39.1H62.9V24.3h14.8V39.1z"/>
	<rect x="75.2" y="56.4" class="st0" width="4.9" height="2.5"/>
	<polygon class="st0" points="80.2,46.6 77.7,46.6 77.7,44.1 70.3,44.1 70.3,49 75.2,49 75.2,51.5 72.7,51.5 72.7,54 70.3,54 
		70.3,49 67.8,49 67.8,58.9 72.7,58.9 72.7,56.4 75.2,56.4 75.2,54 77.7,54 77.7,51.5 80.2,51.5 	"/>
	<rect x="47.5" y="27.3" class="st0" width="4.9" height="2.5"/>
	<polygon class="st0" points="43.1,24.3 43.1,41.6 50.5,41.6 50.5,39.1 51.1,39.1 51.1,36.7 46.1,36.7 46.1,39.1 45.6,39.1 
		45.6,24.3 	"/>
	<polygon class="st0" points="46.1,33 50.5,33 50.5,35.4 55.4,35.4 55.4,41.6 57.9,41.6 57.9,24.3 55.4,24.3 55.4,33 51.1,33 
		51.1,30.5 46.1,30.5 	"/>
	<polygon class="st0" points="57.9,49 67.8,49 67.8,44.1 62.9,44.1 62.9,46.6 57.9,46.6 	"/>
	<rect x="65.3" y="26.8" class="st0" width="9.9" height="9.9"/>
</g>
<path class="st0" d="M28.4,12.5h-16h-1.3h0c-0.7,0-1.2,0.6-1.2,1.2v0v1.3v16c0,0.7,0.6,1.2,1.2,1.2h1.3c0.7,0,1.2-0.6,1.2-1.2V16.3
	h14.8c0.7,0,1.2-0.6,1.2-1.2v-1.3C29.6,13.1,29.1,12.5,28.4,12.5z"/>
<path class="st0" d="M91,31.1v-16v-1.3v0c0-0.7-0.6-1.2-1.2-1.2h0h-1.3h-16c-0.7,0-1.2,0.6-1.2,1.2v1.3c0,0.7,0.6,1.2,1.2,1.2h14.7
	v14.8c0,0.7,0.6,1.2,1.2,1.2h1.3C90.5,32.3,91,31.7,91,31.1z"/>
<path class="st0" d="M71.1,89.6h16h1.3h0c0.7,0,1.2-0.6,1.2-1.2v0V87V71c0-0.7-0.6-1.2-1.2-1.2h-1.3c-0.7,0-1.2,0.6-1.2,1.2v14.7
	H71.1c-0.7,0-1.2,0.6-1.2,1.2v1.3C69.9,89,70.4,89.6,71.1,89.6z"/>
<path class="st0" d="M8.5,71v16v1.3v0c0,0.7,0.6,1.2,1.2,1.2h0H11h16c0.7,0,1.2-0.6,1.2-1.2V87c0-0.7-0.6-1.2-1.2-1.2H12.3V71
	c0-0.7-0.6-1.2-1.2-1.2H9.7C9,69.8,8.5,70.4,8.5,71z"/>
</svg>
